<svg xmlns="http://www.w3.org/2000/svg" xmlns:xlink="http://www.w3.org/1999/xlink" width="70" height="70" viewBox="0 0 70 70">
    <defs>
        <path id="a" d="M0 0h70v70H0z"/>
    </defs>
    <g fill="none" fill-rule="evenodd">
        <mask id="b" fill="#fff">
            <use xlink:href="#a"/>
        </mask>
        <path fill="#E9F0FA" fill-opacity=".25" d="M44.696 23.78a1.77 1.77 0 0 0-.82-.64 1.736 1.736 0 0 0-.689-.14H26.812c-.239 0-.468.047-.687.14a1.765 1.765 0 0 0-.82.64 1.659 1.659 0 0 0-.305.966v20.09c0 .353.102.675.304.966.203.291.477.504.82.64.22.093.45.14.688.14.49 0 .922-.172 1.297-.515L35 39.458l6.89 6.609c.365.332.797.499 1.297.499.26 0 .49-.041.688-.125a1.77 1.77 0 0 0 .82-.64c.203-.29.305-.612.305-.965v-20.09c0-.353-.102-.675-.304-.966zM43 44.352l-6.61-6.327L35 36.7l-1.39 1.325L27 44.352V24.995h16v19.357z" mask="url(#b)"/>
    </g>
</svg>
