<svg xmlns="http://www.w3.org/2000/svg" width="15" height="18" viewBox="0 0 15 18">
    <path fill="#09F" fill-rule="evenodd" d="M14.772.595a1.33 1.33 0 0 0-.616-.488A1.282 1.282 0 0 0 13.64 0H1.36c-.18 0-.351.036-.516.107a1.327 1.327 0 0 0-.615.488A1.282 1.282 0 0 0 0 1.333v15.334c0 .27.077.516.228.738.153.222.358.385.615.488.165.071.337.107.516.107.367 0 .692-.131.973-.393L7.5 12.563l5.168 5.044c.273.254.597.381.972.381.195 0 .368-.031.516-.095a1.33 1.33 0 0 0 .616-.488c.151-.222.228-.468.228-.738V1.333c0-.27-.077-.516-.228-.738zM13.5 16.298l-4.957-4.83-1.043-1.01-1.043 1.01-4.957 4.83V1.523h12v14.775z"/>
</svg>
