<svg xmlns="http://www.w3.org/2000/svg" xmlns:xlink="http://www.w3.org/1999/xlink" width="70" height="70" viewBox="0 0 70 70">
    <defs>
        <path id="a" d="M0 0h70v70H0z"/>
    </defs>
    <g fill="none" fill-rule="evenodd">
        <mask id="b" fill="#fff">
            <use xlink:href="#a"/>
        </mask>
        <g fill="#FFF" mask="url(#b)">
            <path d="M37.395 27.452l-.674-.185a.305.305 0 0 0-.255.028.352.352 0 0 0-.168.212L32.245 41.53a.327.327 0 0 0 .028.266.35.35 0 0 0 .211.168l.674.185a.3.3 0 0 0 .255-.027.353.353 0 0 0 .169-.212l4.051-14.024a.325.325 0 0 0-.026-.266.354.354 0 0 0-.213-.169zM31.322 30.19a.343.343 0 0 0-.109-.25l-.543-.543a.344.344 0 0 0-.25-.109.347.347 0 0 0-.25.109l-5.061 5.062a.347.347 0 0 0-.109.25c0 .094.036.177.109.25l5.061 5.061a.343.343 0 0 0 .5 0l.543-.542a.343.343 0 0 0 0-.5l-4.268-4.27 4.268-4.268a.34.34 0 0 0 .11-.25zM44.77 34.459l-5.062-5.062a.344.344 0 0 0-.249-.109.344.344 0 0 0-.25.109l-.543.543a.342.342 0 0 0 0 .5l4.269 4.268-4.269 4.27a.341.341 0 0 0 0 .5l.543.543a.342.342 0 0 0 .5 0l5.062-5.062a.342.342 0 0 0 0-.5z"/>
        </g>
    </g>
</svg>
