<svg xmlns="http://www.w3.org/2000/svg" xmlns:xlink="http://www.w3.org/1999/xlink" width="150" height="151" viewBox="0 0 150 151">
    <defs>
        <path id="a" d="M.022 150.28h149.832V.146H.022z"/>
    </defs>
    <g fill="none" fill-rule="evenodd">
        <path fill="#09F" d="M112.784 78.373H37.07a6.316 6.316 0 0 1-6.311-6.321V53.087c0-3.49 2.825-6.32 6.31-6.32h75.715c3.486 0 6.31 2.829 6.31 6.32v18.965c0 3.491-2.824 6.32-6.31 6.32zM68.618 147.908h12.619V84.694h-12.62z"/>
        <path fill="#09F" d="M109.63 43.606v28.446c0 16.389-12.452 29.865-28.393 31.45v6.478a3.157 3.157 0 0 1-3.156 3.16 3.157 3.157 0 0 1-3.154-3.16v-6.322h-3.155c-17.423 0-31.548-14.15-31.548-31.606V43.605c0-3.49 2.825-6.321 6.31-6.321h56.785a6.318 6.318 0 0 1 6.311 6.322z"/>
        <path fill="#09F" d="M46.533 37.285h33.852c.539.93.852 2.008.852 3.16v28.447c0 15.092-10.56 27.711-24.68 30.853-9.738-5.38-16.333-15.764-16.333-27.693V43.606c0-3.492 2.825-6.32 6.31-6.32z"/>
        <path fill="#29404B" fill-opacity=".25" d="M40.23 43.304c.158-3.35 2.92-6.02 6.303-6.02h56.786a6.318 6.318 0 0 1 6.311 6.322v28.446c0 16.389-12.452 29.865-28.393 31.45v6.478a3.157 3.157 0 0 1-3.156 3.16 3.157 3.157 0 0 1-3.154-3.16v-6.322h-3.155c-17.423 0-31.548-14.15-31.548-31.606V43.606a6.447 6.447 0 0 1 0-.001V72.052c0 11.93 6.595 22.312 16.333 27.693 14.12-3.142 24.68-15.761 24.68-30.853V40.445c0-1.152-.313-2.23-.852-3.16H46.533c-3.383 0-6.145 2.668-6.302 6.019z"/>
        <path fill="#09F" d="M74.454 91.015a2.37 2.37 0 0 1-2.367 2.371h-.315a2.368 2.368 0 0 1-2.366-2.37 2.367 2.367 0 0 1 2.366-2.37h.315a2.368 2.368 0 0 1 2.367 2.37zm22.557-43.458a2.368 2.368 0 0 0-2.366 2.37v22.125c0 8.056-5.735 14.927-13.638 16.336a2.37 2.37 0 0 0 .829 4.667c10.163-1.812 17.54-10.645 17.54-21.003V49.928c0-1.31-1.059-2.371-2.365-2.371zM84.39 138.425H65.463a3.157 3.157 0 0 1-3.154-3.16v-12.642a3.158 3.158 0 0 1 3.154-3.162h18.929a3.158 3.158 0 0 1 3.155 3.162v12.643a3.157 3.157 0 0 1-3.155 3.16z"/>
        <path fill="#09F" d="M103.32 144.747a3.157 3.157 0 0 1-3.155 3.161H49.687a3.157 3.157 0 0 1-3.154-3.161c0-6.982 5.65-12.643 12.62-12.643H90.7c6.97 0 12.62 5.661 12.62 12.643z"/>
        <mask id="b" fill="#fff">
            <use xlink:href="#a"/>
        </mask>
        <path fill="#29404B" fill-opacity=".25" d="M103.32 144.747a3.157 3.157 0 0 1-3.155 3.161H49.687a3.157 3.157 0 0 1-3.154-3.161c0-1.091.139-2.15.398-3.16H90.7a3.158 3.158 0 0 0 3.155-3.162c0-2.263-.598-4.388-1.64-6.227 6.256.75 11.103 6.081 11.103 12.549z" mask="url(#b)"/>
        <path fill="#29404B" d="M21.945 16.837a2.376 2.376 0 0 1 0-3.353 2.364 2.364 0 0 1 3.346 0l11.154 11.174a2.372 2.372 0 0 1-1.673 4.047c-.605 0-1.21-.232-1.672-.695L21.945 16.837zm52.982 3.854a2.368 2.368 0 0 0 2.365-2.371V2.518c0-1.31-1.059-2.371-2.365-2.371a2.368 2.368 0 0 0-2.367 2.37V18.32c0 1.31 1.06 2.371 2.367 2.371zm-54.42 45.872c0-1.31-1.06-2.37-2.367-2.37H2.367A2.368 2.368 0 0 0 0 66.562c0 1.309 1.06 2.37 2.367 2.37H18.14a2.367 2.367 0 0 0 2.366-2.37zM8.99 145.537h-.314a2.368 2.368 0 0 0-2.366 2.371c0 1.31 1.059 2.371 2.366 2.371h.314a2.368 2.368 0 0 0 2.367-2.371c0-1.31-1.059-2.371-2.367-2.371zm12.621 0h-.316a2.368 2.368 0 0 0-2.366 2.371c0 1.31 1.059 2.371 2.366 2.371h.316a2.368 2.368 0 0 0 2.365-2.371 2.368 2.368 0 0 0-2.365-2.371zm14.834-40.422a2.363 2.363 0 0 0-3.345 0L21.945 116.29a2.377 2.377 0 0 0 0 3.354 2.358 2.358 0 0 0 1.674.692c.605 0 1.21-.23 1.674-.692l11.152-11.176a2.373 2.373 0 0 0 0-3.353zm85.015 42.793c0 1.31-1.06 2.371-2.366 2.371H30.759a2.368 2.368 0 0 1-2.365-2.371c0-1.31 1.059-2.371 2.365-2.371h13.465a5.508 5.508 0 0 1-.057-.79c0-8.277 6.723-15.012 14.986-15.012h.788v-7.112c0-3.05 2.477-5.53 5.521-5.53h.789v-11.514c-13.216-2.178-23.886-12.037-27.269-24.835H37.07c-4.785 0-8.676-3.899-8.676-8.692V53.087c0-4.792 3.891-8.691 8.676-8.691h.787v-.791c0-4.792 3.893-8.69 8.676-8.69h56.786c4.785 0 8.676 3.898 8.676 8.69v.79h.79c4.784 0 8.675 3.9 8.675 8.692v18.965c0 4.793-3.891 8.692-8.676 8.692h-1.913C107.49 93.542 96.82 103.4 83.602 105.579v11.513h.789c3.045 0 5.522 2.481 5.522 5.53v7.113h.787c8.263 0 14.986 6.735 14.986 15.012 0 .269-.019.532-.056.79h13.464a2.368 2.368 0 0 1 2.366 2.371zm-9.692-71.905h1.016a3.952 3.952 0 0 0 3.945-3.951V53.087c0-2.179-1.77-3.95-3.945-3.95h-.789v22.915c0 1.335-.077 2.655-.227 3.951zm-73.682 0a34.29 34.29 0 0 1-.229-3.951V49.137h-.787a3.952 3.952 0 0 0-3.945 3.95v18.965a3.952 3.952 0 0 0 3.945 3.951h1.016zm33.686 25.285h6.31c16.09 0 29.182-13.115 29.182-29.236V43.605c0-2.178-1.77-3.95-3.945-3.95H46.533a3.952 3.952 0 0 0-3.944 3.95v28.447c.001 16.121 13.092 29.236 29.183 29.236zm6.31 4.74h-6.31c-.263 0-.526-.002-.79-.008v11.072h7.888V106.02c-.262.006-.524.009-.789.009zm-13.409 23.707H85.18v-7.112a.79.79 0 0 0-.79-.79H65.463a.79.79 0 0 0-.789.79v7.112zm36.281 15.012c0-5.664-4.6-10.272-10.254-10.272H59.153c-5.654 0-10.253 4.608-10.253 10.272 0 .436.353.79.787.79h50.478a.79.79 0 0 0 .789-.79zm46.534-80.555h-15.775a2.368 2.368 0 0 0-2.365 2.371 2.367 2.367 0 0 0 2.365 2.37h15.775a2.369 2.369 0 0 0 2.366-2.37 2.37 2.37 0 0 0-2.366-2.37zm-22.926-50.708l-11.155 11.174a2.375 2.375 0 0 0 0 3.352 2.364 2.364 0 0 0 3.348 0l11.152-11.175a2.371 2.371 0 0 0 0-3.351 2.363 2.363 0 0 0-3.345 0zm-7.807 91.631a2.364 2.364 0 0 0-3.346 0 2.374 2.374 0 0 0 0 3.353l11.153 11.176a2.362 2.362 0 0 0 1.673.692c.606 0 1.212-.23 1.674-.692a2.376 2.376 0 0 0 0-3.354l-11.154-11.175z" mask="url(#b)"/>
    </g>
</svg>
