<svg xmlns="http://www.w3.org/2000/svg" width="20" height="18" viewBox="0 0 20 18">
    <path fill="#09F" fill-rule="evenodd" d="M19.854 4.764c-.57-2.876-2.605-4.73-5.229-4.73-1.467 0-3.054.607-4.608 1.75C8.447.607 6.86 0 5.375 0 2.752 0 .697 1.871.145 4.781c-.828 4.314 1.83 10.048 9.613 13.167a.695.695 0 0 0 .26.052.694.694 0 0 0 .258-.052c7.767-3.188 10.407-8.904 9.578-13.184zm-9.837 11.763C3.183 13.686.818 8.731 1.525 5.042c.415-2.2 1.933-3.639 3.85-3.639 1.294 0 2.744.624 4.193 1.82a.7.7 0 0 0 .88 0c1.45-1.161 2.883-1.768 4.177-1.768 1.916 0 3.418 1.403 3.849 3.587.708 3.655-1.64 8.592-8.457 11.485z"/>
</svg>
