<svg xmlns="http://www.w3.org/2000/svg" width="30" height="30" viewBox="0 0 30 30">
    <g fill="none" fill-rule="evenodd">
        <path fill="#28B2EB" d="M27.571 9.654c-2.275-3.074-6.058-5.264-10.476-5.81-.904-.122-.962 1.073-2.168 1.073-1.207 0-1.265-1.196-2.169-1.073-4.417.545-8.2 2.736-10.475 5.81C.841 11.602 0 13.902 0 16.371c0 6.993 6.683 12.662 14.927 12.662s14.927-5.669 14.927-12.662c0-2.47-.841-4.769-2.283-6.717z"/>
        <path stroke="#196177" d="M12.005 16.474l-2.277-2.417"/>
        <path fill="#29404B" d="M26.863 18.796c0 3.238-5.941 9.23-11.936 9.23-5.577 0-11.937-5.991-11.937-9.23h23.873zM12.758 3.844c.904-.122.962 1.073 2.169 1.073 1.206 0 1.264-1.196 2.168-1.073 4.418.545 8.2 2.736 10.476 5.81h.011C23.738 3.871 17.744 3.274 17.744 0c-1.054 0-1.159 2.064-2.818 2.064C13.268 2.064 13.163 0 12.109 0c0 3.275-5.994 3.871-9.837 9.654h.011C4.558 6.58 8.341 4.39 12.758 3.844z"/>
        <path fill="#FFF" d="M27.432 18.796c.131-.499.211-1.009.211-1.534 0-4.226-3.438-7.645-7.688-7.645-2.779 0-4 1.797-5.028 1.797-1.026 0-2.249-1.797-5.027-1.797-4.25 0-7.688 3.42-7.688 7.645 0 .525.08 1.036.211 1.534 2.854-.422 5.9-3.703 7.306-4.739l2.278 2.417c-2.571 1.041-5.64 2.53-5.154 7.485 2.189 1.227 4.991 1.964 8.049 1.964h.052c3.058 0 5.86-.737 8.05-1.964.485-4.955-2.583-6.444-5.154-7.485l2.277-2.417c1.404 1.036 4.45 4.317 7.305 4.74z"/>
        <ellipse cx="14.927" cy="18.794" fill="#28B2EB" rx="3.185" ry="1.83"/>
        <path fill="#0A1D23" d="M9.914 20.202c1.222 1.464 3.082 2.273 5.014 2.316.645.015.644-.953 0-.967-1.688-.038-3.245-.761-4.307-2.034-.406-.485-1.109.204-.707.685z"/>
        <path fill="#29404B" stroke="#29404B" stroke-width=".1" d="M23.003 23.96c2.282-1.28 3.887-3.095 4.429-5.164-2.854-.422-5.9-3.703-7.306-4.739l-2.277 2.417c2.57 1.041 5.639 2.53 5.154 7.485zM12.005 16.474l-2.278-2.417c-1.405 1.036-4.451 4.317-7.306 4.74.542 2.068 2.147 3.883 4.43 5.162-.485-4.954 2.584-6.444 5.154-7.485z"/>
        <path fill="#0A1D23" d="M19.233 19.517c-1.062 1.273-2.618 1.996-4.307 2.034-.644.014-.645.982 0 .967 1.932-.042 3.792-.852 5.014-2.316.401-.481-.302-1.17-.707-.685z"/>
        <ellipse cx="11.037" cy="15.096" fill="#000" rx="1.711" ry="1.656"/>
        <ellipse cx="18.816" cy="15.096" fill="#000" rx="1.711" ry="1.656"/>
        <path fill="#6D6D6D" d="M10.388 15.976c-.205 0-.508-.612-.508-.885 0-.282.304-.886.508-.886.528 0-.084.453-.084.886 0 .477.559.885.084.885zM18.417 16.072c-.205 0-.508-.612-.508-.885 0-.282.303-.886.508-.886.528 0-.084.453-.084.886 0 .477.559.885.084.885z"/>
    </g>
</svg>
