<svg xmlns="http://www.w3.org/2000/svg" xmlns:xlink="http://www.w3.org/1999/xlink" width="228" height="229" viewBox="0 0 228 229">
    <defs>
        <path id="a" d="M.033.222v227.78H227.78V.221H.033z"/>
    </defs>
    <g fill="none" fill-rule="evenodd">
        <path fill="#FFE52C" d="M171.432 23v182.223c0 10.593-8.347 19.18-18.649 19.18H22.243c-10.298 0-18.646-8.587-18.646-19.18V23c0-10.594 8.348-19.181 18.647-19.181h130.54c10.3 0 18.648 8.587 18.648 19.18z"/>
        <path fill="#FFF" d="M46.753 37.385a9.589 9.589 0 0 1-9.59 9.59c-5.296 0-9.59-4.292-9.59-9.59 0-5.295 4.294-9.59 9.59-9.59 5.298 0 9.59 4.295 9.59 9.59zm-9.59 143.86c-5.296 0-9.59 4.295-9.59 9.591 0 5.298 4.294 9.59 9.59 9.59a9.589 9.589 0 0 0 9.59-9.59c0-5.296-4.292-9.591-9.59-9.591zm0-76.724a9.59 9.59 0 0 0-9.59 9.59c0 5.296 4.294 9.591 9.59 9.591 5.298 0 9.59-4.295 9.59-9.59a9.588 9.588 0 0 0-9.59-9.59z"/>
        <path fill="#09F" d="M137.864 36.186a3.596 3.596 0 0 1-3.595-3.595v-.48a3.597 3.597 0 1 1 7.193 0v.48a3.596 3.596 0 0 1-3.598 3.595zm3.598 188.218V46.976a3.596 3.596 0 0 0-7.193 0v177.428h7.193zm-7.193-206.2a3.596 3.596 0 1 0 7.193 0V3.82h-7.193v14.384z"/>
        <path fill="#FFC02C" d="M221.372 121.276l-88.16 88.16c-3.746 3.746-9.819 3.746-13.564 0l-1.914-1.915-16.883 16.883H87.288l-9.734-9.734a4.796 4.796 0 0 1 0-6.782l20.274-20.273-1.914-1.915c-3.745-3.744-3.745-9.818 0-13.563l88.159-88.161c3.745-3.745 9.818-3.745 13.563 0l23.736 23.736c3.745 3.745 3.745 9.816 0 13.564z"/>
        <path fill="#2C4D67" d="M197.636 83.976l23.736 23.736c3.745 3.745 3.745 9.816 0 13.562l-88.16 88.163c-3.746 3.745-9.819 3.745-13.564 0L95.912 185.7c-3.746-3.744-3.746-9.818 0-13.563l88.16-88.161c3.746-3.745 9.82-3.745 13.564 0z"/>
        <g>
            <mask id="b" fill="#fff">
                <use xlink:href="#a"/>
            </mask>
            <path fill="#09F" d="M184.073 138.23a4.797 4.797 0 0 1-6.782 0l-10.173-10.172a4.795 4.795 0 0 1 0-6.782l37.3-37.3a4.796 4.796 0 0 1 6.782 0l10.172 10.172a4.797 4.797 0 0 1 0 6.783l-37.3 37.3z" mask="url(#b)"/>
            <path fill="#29404B" d="M107.894 62.562a3.595 3.595 0 0 1-3.595 3.595H70.73a3.596 3.596 0 1 1 0-7.192h33.568a3.596 3.596 0 0 1 3.595 3.597zm-3.595 44.357H70.73a3.597 3.597 0 0 0 0 7.193h33.568a3.596 3.596 0 0 0 0-7.193zm-53.948 7.193c0 7.27-5.915 13.185-13.188 13.185-7.27 0-13.186-5.915-13.186-13.185 0-7.27 5.915-13.188 13.186-13.188 7.273 0 13.188 5.917 13.188 13.188zm-7.193 0a6.001 6.001 0 0 0-5.995-5.996 6.001 6.001 0 0 0-5.993 5.996 6 6 0 0 0 5.993 5.993 6.001 6.001 0 0 0 5.995-5.993zm61.14-40.76H70.732a3.597 3.597 0 1 0 0 7.192h33.568a3.596 3.596 0 0 0 0-7.193zM65.937 220.805H22.244c-8.298 0-15.051-6.99-15.051-15.583V23c0-8.594 6.753-15.586 15.05-15.586h130.54c8.3 0 15.052 6.992 15.052 15.586v47.952a3.597 3.597 0 1 0 7.194 0V23.001c0-12.56-9.979-22.779-22.246-22.779H22.243C9.98.222 0 10.441 0 23.001v182.222C0 217.783 9.98 228 22.244 228h43.69a3.596 3.596 0 0 0 3.598-3.597 3.596 3.596 0 0 0-3.596-3.598zm22.777-95.905a3.596 3.596 0 0 0-3.596-3.597H70.731a3.596 3.596 0 0 0-3.595 3.597 3.595 3.595 0 0 0 3.595 3.595h14.386a3.595 3.595 0 0 0 3.596-3.595zm135.468 95.905h-.48a3.596 3.596 0 0 0-3.595 3.598 3.596 3.596 0 0 0 3.595 3.597h.48a3.598 3.598 0 0 0 0-7.195zm-39.561 3.598a3.598 3.598 0 0 1-3.597 3.597H80.322a3.598 3.598 0 0 1-1.836-6.69l-4.1-4.098a8.334 8.334 0 0 1-2.456-5.934c0-2.242.873-4.349 2.457-5.933l17.752-17.754c-4.525-5.171-4.323-13.068.608-17.999l88.16-88.16a13.11 13.11 0 0 1 9.326-3.863c3.521 0 6.832 1.373 9.324 3.862a3.6 3.6 0 0 1 .703.993l.993-.993c3.271-3.271 8.595-3.271 11.867 0l10.173 10.173a8.335 8.335 0 0 1 2.456 5.935c0 2.241-.87 4.348-2.456 5.932l-.993.993c.359.171.695.406.993.704 5.141 5.141 5.141 13.507 0 18.648l-88.161 88.163a13.104 13.104 0 0 1-9.326 3.86 13.096 13.096 0 0 1-8.676-3.253l-8.22 8.22h72.113a3.596 3.596 0 0 1 3.597 3.597zM169.039 123.82a1.2 1.2 0 0 0 0 1.694l10.172 10.173c.467.466 1.23.466 1.696 0l37.298-37.3a1.196 1.196 0 0 0 0-1.694l-10.17-10.173a1.19 1.19 0 0 0-.85-.35c-.184 0-.54.043-.847.35l-37.3 37.3zm-71.207 59.337l23.736 23.736a6.002 6.002 0 0 0 8.478 0l88.162-88.161a6 6 0 0 0 0-8.476 3.593 3.593 0 0 1-.704-.993l-31.509 31.509c-3.274 3.271-8.598 3.271-11.87 0l-10.172-10.17a8.343 8.343 0 0 1-2.457-5.935c0-2.242.873-4.35 2.457-5.935l31.51-31.509a3.6 3.6 0 0 1-.992-.703 5.976 5.976 0 0 0-4.238-1.753c-1.536 0-3.07.584-4.238 1.753l-88.163 88.16a6 6 0 0 0 0 8.477zm.906 37.65l13.285-13.286-14.819-14.82-17.73 17.73a1.194 1.194 0 0 0-.352.85c0 .185.046.541.352.847l8.68 8.68h10.584v-.002zM50.35 37.384c0 7.273-5.915 13.188-13.188 13.188-7.27 0-13.186-5.915-13.186-13.188 0-7.27 5.915-13.185 13.186-13.185 7.273 0 13.188 5.915 13.188 13.185zm-7.193 0a6.001 6.001 0 0 0-5.995-5.993 6 6 0 0 0-5.993 5.993 6.001 6.001 0 0 0 5.993 5.996 6.002 6.002 0 0 0 5.995-5.996zm7.193 153.451c0 7.27-5.915 13.187-13.188 13.187-7.27 0-13.186-5.917-13.186-13.187 0-7.271 5.915-13.186 13.186-13.186 7.273 0 13.188 5.915 13.188 13.186zm-7.193 0a6.001 6.001 0 0 0-5.995-5.994 6.001 6.001 0 0 0-5.993 5.994 6.001 6.001 0 0 0 5.993 5.995 6.002 6.002 0 0 0 5.995-5.995zm152.732 29.97h-.48a3.598 3.598 0 0 0 0 7.195h.48a3.596 3.596 0 0 0 3.595-3.597 3.596 3.596 0 0 0-3.595-3.598z" mask="url(#b)"/>
        </g>
    </g>
</svg>
