<svg xmlns="http://www.w3.org/2000/svg" xmlns:xlink="http://www.w3.org/1999/xlink" width="70" height="70" viewBox="0 0 70 70">
    <defs>
        <path id="a" d="M0 0h70v70H0z"/>
    </defs>
    <g fill="none" fill-rule="evenodd">
        <mask id="b" fill="#fff">
            <use xlink:href="#a"/>
        </mask>
        <path fill="#E9F0FA" fill-opacity=".25" d="M45 32.75c0-.31-.225-.504-.673-.58l-6.034-.92-2.704-5.733c-.152-.345-.349-.517-.59-.517-.24 0-.436.172-.588.517l-2.705 5.734-6.033.92c-.448.075-.673.269-.673.58 0 .176.1.377.3.604l4.376 4.462-1.034 6.3a2.17 2.17 0 0 0-.024.253c0 .176.042.326.126.447.084.122.21.183.378.183.145 0 .305-.05.482-.151L35 41.875l5.396 2.974c.169.1.329.151.48.151.33 0 .494-.21.494-.63 0-.11-.004-.193-.012-.252l-1.034-6.3 4.363-4.462c.209-.22.313-.421.313-.605zm-6.335 4.5l.866 5.305L35 40.048l-4.543 2.507.877-5.306-3.678-3.742 5.072-.782L35 27.911l2.272 4.814 5.072.782-3.679 3.742z" mask="url(#b)"/>
    </g>
</svg>
