<svg xmlns="http://www.w3.org/2000/svg" xmlns:xlink="http://www.w3.org/1999/xlink" width="70" height="70" viewBox="0 0 70 70">
    <defs>
        <path id="a" d="M0 0h70v70H0z"/>
        <path id="c" d="M.368.002v20.682h27.225V.002H.368z"/>
    </defs>
    <g fill="none" fill-rule="evenodd">
        <mask id="b" fill="#fff">
            <use xlink:href="#a"/>
        </mask>
        <g mask="url(#b)">
            <g transform="translate(21 25)">
                <mask id="d" fill="#fff">
                    <use xlink:href="#c"/>
                </mask>
                <path fill="#E9F0FA" fill-opacity=".25" fill-rule="nonzero" d="M2.5 15.9a3.287 3.287 0 0 0 3.281 3.282h8.984a3.287 3.287 0 0 0 3.28-3.281v-1.8a1.05 1.05 0 1 0-2.1 0v1.8c0 .65-.534 1.184-1.185 1.184H5.781c-.65 0-1.184-.533-1.184-1.184V4.786c0-.651.533-1.184 1.184-1.184h8.984c.65 0 1.183.533 1.183 1.184v1.8a1.05 1.05 0 1 0 2.102 0v-1.8a3.287 3.287 0 0 0-3.281-3.282H5.781A3.284 3.284 0 0 0 2.5 4.786V15.9zM5.781 2.505h8.988a2.287 2.287 0 0 1 2.281 2.282v1.8a.05.05 0 0 1-.05.05.05.05 0 0 1-.052-.05v-1.8c0-1.204-.98-2.184-2.183-2.184H5.78c-1.203 0-2.184.98-2.184 2.184V15.9c0 1.203.98 2.184 2.184 2.184h8.98c1.202 0 2.183-.98 2.183-2.184v-1.8a.05.05 0 0 1 .05-.051.05.05 0 0 1 .052.05v1.8a2.287 2.287 0 0 1-2.281 2.282H5.78A2.287 2.287 0 0 1 3.5 15.901V4.786a2.284 2.284 0 0 1 2.281-2.282z" mask="url(#d)"/>
                <path fill="#E9F0FA" fill-opacity=".25" fill-rule="nonzero" d="M20.65 15.147c.277 0 .543-.108.742-.308l3.758-3.757c.41-.41.41-1.072 0-1.482l-3.758-3.757a1.046 1.046 0 0 0-1.482 0c-.41.41-.41 1.071 0 1.481l2.822 2.822.354-.854H12.79a1.05 1.05 0 1 0 0 2.102H23.08l-.354-.853-2.82 2.82a1.04 1.04 0 0 0 .003 1.482c.196.196.461.304.74.304zm-.04-1.074l2.825-2.825.853-.854H12.79a.05.05 0 0 1-.051-.05.05.05 0 0 1 .05-.052H24.294l-.854-.853-2.821-2.822a.046.046 0 0 1 0-.067c.02-.02.048-.02.067 0l3.758 3.757c.02.02.02.048 0 .068l-3.758 3.757a.046.046 0 0 1-.036.015.046.046 0 0 1-.036-.015c-.018-.018-.018-.045-.003-.06z" mask="url(#d)"/>
            </g>
        </g>
    </g>
</svg>
