<svg xmlns="http://www.w3.org/2000/svg" xmlns:xlink="http://www.w3.org/1999/xlink" width="70" height="70" viewBox="0 0 70 70">
    <defs>
        <path id="a" d="M0 0h70v70H0z"/>
    </defs>
    <g fill="none" fill-rule="evenodd">
        <mask id="b" fill="#fff">
            <use xlink:href="#a"/>
        </mask>
        <g fill="#E9F0FA" fill-opacity=".25" mask="url(#b)">
            <path d="M43.495 30.112a9.869 9.869 0 0 0-3.607-3.607c-1.518-.886-3.177-1.33-4.975-1.33-1.799 0-3.457.444-4.976 1.33a9.862 9.862 0 0 0-3.607 3.607c-.887 1.52-1.33 3.178-1.33 4.976s.443 3.456 1.33 4.975a9.866 9.866 0 0 0 3.607 3.607c1.519.887 3.177 1.33 4.976 1.33 1.798 0 3.457-.443 4.975-1.33a9.868 9.868 0 0 0 3.607-3.607c.886-1.519 1.33-3.177 1.33-4.975 0-1.798-.444-3.458-1.33-4.976zm-2.503 8.5a7.006 7.006 0 0 1-2.556 2.555 6.862 6.862 0 0 1-3.523.942 6.86 6.86 0 0 1-3.524-.942 6.999 6.999 0 0 1-2.556-2.556 6.866 6.866 0 0 1-.942-3.523c0-1.274.315-2.448.942-3.524a6.997 6.997 0 0 1 2.556-2.555 6.86 6.86 0 0 1 3.524-.942c1.273 0 2.448.314 3.523.942a7.004 7.004 0 0 1 2.556 2.555 6.864 6.864 0 0 1 .941 3.524 6.863 6.863 0 0 1-.941 3.523z"/>
            <path d="M36.152 30.131h-.826c-.121 0-.22.04-.297.117a.402.402 0 0 0-.116.297v4.543H32.02c-.12 0-.22.039-.297.115a.402.402 0 0 0-.116.297v.827c0 .12.039.22.116.297a.402.402 0 0 0 .297.116h4.13a.398.398 0 0 0 .414-.413v-5.782c0-.121-.04-.22-.117-.297a.4.4 0 0 0-.296-.117z"/>
        </g>
    </g>
</svg>
