<svg xmlns="http://www.w3.org/2000/svg" xmlns:xlink="http://www.w3.org/1999/xlink" width="70" height="70" viewBox="0 0 70 70">
    <defs>
        <path id="a" d="M0 0h70v70H0z"/>
    </defs>
    <g fill="none" fill-rule="evenodd">
        <mask id="b" fill="#fff">
            <use xlink:href="#a"/>
        </mask>
        <path fill="#E9F0FA" fill-opacity=".25" d="M44.722 33.492a.409.409 0 0 0-.272-.16l-2.361-.358a7.673 7.673 0 0 0-.53-1.252c.155-.213.387-.513.697-.902.31-.387.529-.67.658-.849a.491.491 0 0 0 .103-.294c0-.12-.03-.213-.09-.281-.31-.435-1.02-1.16-2.13-2.173a.502.502 0 0 0-.322-.127.422.422 0 0 0-.31.115l-1.833 1.367a7.982 7.982 0 0 0-1.162-.473l-.36-2.351a.376.376 0 0 0-.15-.275.49.49 0 0 0-.316-.109H33.48c-.249 0-.404.12-.464.358-.112.426-.237 1.218-.374 2.377a7.49 7.49 0 0 0-1.175.486l-1.78-1.368a.554.554 0 0 0-.336-.127c-.19 0-.596.304-1.22.913-.624.61-1.048 1.067-1.271 1.374a.537.537 0 0 0-.116.294c0 .102.042.204.128.306.577.69 1.038 1.279 1.382 1.764a6.316 6.316 0 0 0-.504 1.176l-2.4.358a.391.391 0 0 0-.245.166.488.488 0 0 0-.104.294v2.837c0 .111.034.21.104.3.068.09.158.143.27.16l2.363.346c.12.417.296.838.529 1.264a28.53 28.53 0 0 1-.697.901c-.31.388-.53.671-.659.85a.491.491 0 0 0-.013.588c.336.46 1.045 1.176 2.13 2.147.094.094.203.14.323.14.129 0 .236-.038.322-.114l1.82-1.368c.353.179.74.337 1.162.473l.361 2.351a.376.376 0 0 0 .149.275c.09.073.195.109.316.109h2.865c.25 0 .405-.12.465-.358.111-.426.237-1.218.374-2.377.404-.128.796-.29 1.175-.486l1.781 1.38c.12.077.232.116.336.116.188 0 .593-.302 1.213-.907.62-.605 1.045-1.066 1.277-1.381a.421.421 0 0 0 .116-.294.49.49 0 0 0-.129-.32c-.62-.749-1.08-1.337-1.381-1.763.172-.316.34-.703.503-1.163l2.388-.357a.398.398 0 0 0 .259-.167.492.492 0 0 0 .102-.294v-2.837a.48.48 0 0 0-.102-.3zm-7.473 4.007a3.2 3.2 0 0 1-2.336.958 3.2 3.2 0 0 1-2.336-.958 3.136 3.136 0 0 1-.969-2.314c0-.903.323-1.674.969-2.313a3.2 3.2 0 0 1 2.336-.959c.912 0 1.69.32 2.336.959.645.64.967 1.41.967 2.313 0 .903-.322 1.674-.967 2.314z" mask="url(#b)"/>
    </g>
</svg>
