<svg xmlns="http://www.w3.org/2000/svg" xmlns:xlink="http://www.w3.org/1999/xlink" width="17" height="18" viewBox="0 0 17 18">
    <defs>
        <path id="a" d="M13.152 11.239c-.915 0-1.731.437-2.253 1.112L6.528 9.905a2.863 2.863 0 0 0-.004-1.883l4.368-2.442a2.839 2.839 0 0 0 2.257 1.119 2.85 2.85 0 1 0 0-5.699 2.85 2.85 0 0 0-2.683 3.792L6.1 7.235a2.83 2.83 0 0 0-2.256-1.119A2.851 2.851 0 0 0 1 8.966a2.852 2.852 0 0 0 2.848 2.849c.918 0 1.738-.44 2.26-1.122l4.368 2.445a2.838 2.838 0 0 0-.165.95 2.851 2.851 0 0 0 2.844 2.85 2.85 2.85 0 0 0-.003-5.7zm0-9.342a1.956 1.956 0 0 1 0 3.911 1.956 1.956 0 0 1 0-3.911zM3.848 10.92a1.956 1.956 0 0 1 0-3.911 1.956 1.956 0 0 1 0 3.911zm9.304 5.12a1.956 1.956 0 0 1 0-3.912 1.956 1.956 0 0 1 0 3.912z"/>
    </defs>
    <g fill="none" fill-rule="evenodd">
        <use fill="#09F" xlink:href="#a"/>
        <path stroke="#09F" stroke-width=".25" d="M10.324 13.197L6.14 10.854a2.966 2.966 0 0 1-2.292 1.086A2.977 2.977 0 0 1 .875 8.965a2.976 2.976 0 0 1 2.97-2.974c.898 0 1.731.403 2.288 1.082l4.181-2.339A2.974 2.974 0 0 1 13.148.875a2.974 2.974 0 0 1 0 5.949c-.896 0-1.73-.405-2.288-1.083l-4.184 2.34a2.99 2.99 0 0 1 .003 1.766l4.188 2.343a2.968 2.968 0 0 1 2.285-1.076 2.974 2.974 0 1 1 .003 5.949 2.976 2.976 0 0 1-2.97-2.975c0-.302.048-.603.14-.891zm2.828-11.175a1.83 1.83 0 0 0 0 3.661 1.83 1.83 0 0 0 0-3.661zm-9.304 8.774a1.83 1.83 0 0 0 0-3.662 1.83 1.83 0 0 0 0 3.662zm9.304 5.12a1.831 1.831 0 0 0 0-3.662 1.83 1.83 0 0 0 0 3.662z"/>
    </g>
</svg>
